<svg xmlns="http://www.w3.org/2000/svg" width="211.61" height="56.561" viewBox="0 0 211.61 56.561"><path fill="#765088" d="M8.577 16.268c1.24-1.15 2.475-1.98 3.702-2.487 1.226-.506 2.675-.76 4.347-.76 3.107 0 5.693.884 7.756 2.654 1.23 1.074 2.068 2.28 2.513 3.613.446 1.334.667 2.95.667 4.847v15.38c0 1.406-.393 2.578-1.18 3.518-.786.937-1.875 1.406-3.262 1.406-1.337 0-2.403-.477-3.195-1.43s-1.187-2.12-1.187-3.5V26.16c0-1.594-.446-2.92-1.334-3.98-.89-1.062-2.13-1.593-3.724-1.593-.91 0-1.737.245-2.48.734-.742.488-1.323 1.13-1.745 1.927-.418.8-.63 1.652-.63 2.56V39.51c0 1.408-.393 2.583-1.18 3.52-.787.94-1.875 1.41-3.262 1.41-1.338 0-2.404-.478-3.195-1.43C.395 42.055 0 40.89 0 39.513v-21.14c0-1.4.37-2.595 1.107-3.587s1.787-1.516 3.146-1.575c2.05 0 3.493 1.02 4.324 3.058zM58.896 18.077v14.046c0 3.1-.72 5.52-2.155 7.272-1.31 1.68-2.998 2.972-5.066 3.87-2.065.9-4.224 1.348-6.472 1.348-2.218 0-4.366-.45-6.443-1.356-2.08-.903-3.772-2.19-5.082-3.86-1.437-1.868-2.156-4.293-2.156-7.273V18.077c0-1.387.393-2.546 1.175-3.474.78-.93 1.852-1.394 3.21-1.394 1.37 0 2.45.463 3.248 1.393.797.928 1.195 2.086 1.195 3.474v12.96c0 1.663.46 2.924 1.377 3.784.95.968 2.107 1.452 3.475 1.452 1.3 0 2.463-.484 3.49-1.45.918-.86 1.378-2.122 1.378-3.784v-12.96c0-1.388.393-2.547 1.18-3.475.788-.93 1.874-1.394 3.262-1.394 1.358 0 2.43.46 3.21 1.385.783.924 1.174 2.086 1.174 3.482zM76.01 21.612v17.9c0 1.418-.393 2.593-1.174 3.526-.782.934-1.852 1.4-3.21 1.4s-2.438-.478-3.24-1.43c-.803-.954-1.203-2.118-1.203-3.496v-17.9c-2.208 0-3.69-.44-4.44-1.32-.686-.743-1.027-1.642-1.027-2.698 0-.655.184-1.32.556-1.994.372-.675.85-1.153 1.436-1.438.713-.36 1.872-.542 3.475-.542V8.11c0-1.4.396-2.57 1.187-3.512.792-.944 1.877-1.415 3.256-1.415 1.35 0 2.417.468 3.204 1.407.786.938 1.18 2.11 1.18 3.52v5.51h2.52c1.262 0 2.317.354 3.17 1.057.848.704 1.273 1.676 1.273 2.917 0 1.232-.428 2.21-1.283 2.932-.856.724-1.908 1.086-3.16 1.086h-2.52zM93.193 16.333c2.113-2.208 4.09-3.314 5.94-3.314 1.27 0 2.36.406 3.27 1.216.91.812 1.362 1.828 1.362 3.05 0 1.28-.37 2.2-1.107 2.756-.738.557-1.874 1.08-3.407 1.57-2.15.723-3.708 1.465-4.678 2.227-.918.724-1.378 1.924-1.378 3.606v12.067c0 1.407-.393 2.58-1.18 3.52-.786.936-1.874 1.405-3.262 1.405-1.34 0-2.405-.477-3.195-1.43s-1.19-2.117-1.19-3.495v-21.26c0-1.592.36-2.775 1.072-3.547.878-.998 1.94-1.496 3.18-1.496 2.063 0 3.587 1.04 4.573 3.123zM105.09 5.17c0-1.4.5-2.612 1.5-3.635C107.592.512 108.793 0 110.19 0c.918 0 1.77.236 2.552.705.78.47 1.402 1.1 1.86 1.894.46.792.69 1.648.69 2.568 0 1.39-.502 2.6-1.503 3.626-1.003 1.028-2.202 1.542-3.602 1.542-1.396 0-2.598-.515-3.6-1.542-1-1.026-1.5-2.236-1.5-3.625zm.6 34.343V18.077c0-1.387.39-2.546 1.172-3.474.78-.93 1.853-1.394 3.21-1.394 1.37 0 2.453.463 3.248 1.393.796.928 1.193 2.086 1.193 3.474v21.436c0 1.407-.39 2.58-1.18 3.52-.784.936-1.874 1.405-3.26 1.405-1.34 0-2.405-.477-3.196-1.43-.792-.953-1.188-2.117-1.188-3.495zM127.77 16.56c2.112-2.36 4.535-3.54 7.272-3.54 3.52 0 6.46 1.124 8.826 3.372 1.546 1.506 2.732 3.3 3.564 5.38.83 2.082 1.245 4.214 1.245 6.392 0 2.836-.528 5.51-1.582 8.02-1.057 2.515-2.625 4.546-4.708 6.1-2.082 1.555-4.55 2.33-7.404 2.33-2.365 0-4.666-.858-6.906-2.58v9.487c0 1.408-.392 2.58-1.18 3.52-.786.938-1.872 1.407-3.263 1.407-1.34 0-2.403-.477-3.195-1.428-.79-.956-1.188-2.12-1.188-3.5V18.43c0-1.467.35-2.703 1.05-3.71.7-1.006 1.746-1.51 3.144-1.51 1.114 0 1.994.28 2.64.84.643.563 1.205 1.4 1.685 2.51zm0 12.256c0 1.28.243 2.51.728 3.685.483 1.175 1.202 2.127 2.156 2.855.956.73 2.097 1.094 3.43 1.094 1.183 0 2.216-.387 3.096-1.153.883-.767 1.545-1.742 1.997-2.92.45-1.18.675-2.365.675-3.56 0-1.183-.225-2.37-.675-3.56-.452-1.187-1.114-2.163-1.997-2.927-.88-.762-1.913-1.145-3.097-1.145-1.332 0-2.473.365-3.43 1.093-.953.73-1.672 1.678-2.155 2.848-.484 1.17-.727 2.4-.727 3.69zM170.717 40.948c-1.065 1.29-2.157 2.224-3.277 2.8-1.12.577-2.49.865-4.11.865-3.196 0-6.08-1.118-8.65-3.357-3.482-3.098-5.22-7.262-5.22-12.49 0-4.83 1.54-8.753 4.618-11.773 2.688-2.688 5.71-4.033 9.074-4.033 1.612 0 2.986.274 4.12.82 1.135.547 2.302 1.436 3.503 2.664.9-2.155 2.32-3.233 4.268-3.233 1.26 0 2.326.436 3.195 1.306.87.87 1.306 1.935 1.306 3.196v21.494c0 1.445-.412 2.68-1.238 3.7-.827 1.022-1.935 1.532-3.32 1.532-2.025 0-3.448-1.163-4.27-3.49zm-12.432-12.322c0 2.074.483 3.886 1.457 5.438.974 1.55 2.427 2.325 4.363 2.325 1.3 0 2.436-.35 3.406-1.042.975-.694 1.713-1.604 2.217-2.73.503-1.125.756-2.313.756-3.565 0-2.28-.524-4.16-1.57-5.642-1.046-1.48-2.65-2.224-4.808-2.224-1.818 0-3.243.767-4.275 2.298-1.03 1.528-1.545 3.244-1.545 5.142zM202.784 15.786V4.852c0-1.377.392-2.53 1.18-3.46C204.752.465 205.838 0 207.227 0c1.357 0 2.428.462 3.21 1.386.78.923 1.174 2.08 1.174 3.467v34.542c0 1.416-.376 2.61-1.12 3.584-.748.972-1.813 1.457-3.19 1.457-1.153 0-2.063-.288-2.732-.864-.672-.577-1.22-1.452-1.65-2.625-.96 1.3-2.068 2.236-3.33 2.808-1.26.57-2.737.857-4.426.857-1.955 0-3.797-.5-5.526-1.502-1.733-1-3.192-2.343-4.384-4.022-2.2-3.197-3.3-6.902-3.3-11.114 0-2.102.502-4.238 1.503-6.407 1.002-2.17 2.304-3.954 3.907-5.352 2.473-2.17 5.312-3.255 8.52-3.255 2.303 0 4.603.942 6.902 2.826zM190.776 28.39c0 1.977.553 3.734 1.657 5.27 1.104 1.537 2.595 2.304 4.47 2.304 1.242 0 2.312-.374 3.212-1.122.9-.75 1.577-1.715 2.038-2.898.46-1.184.688-2.387.688-3.61 0-1.204-.228-2.393-.687-3.567-.46-1.173-1.138-2.135-2.038-2.884-.9-.748-1.97-1.122-3.212-1.122-1.29 0-2.398.368-3.327 1.102-.93.734-1.627 1.686-2.097 2.855-.468 1.168-.704 2.393-.704 3.674z"/></svg>